<svg xmlns="http://www.w3.org/2000/svg"><symbol id="main-logo" viewBox="0 0 242.5 351.7"><path fill-rule="evenodd" clip-rule="evenodd" fill="#333" d="M125.6 230.2c-19.8 0-21.1-30.8-45.7-17.7-16.9 10-34.7-12.2-49.8 4.5-19.4 17.4-24.9 21.6-9.8 41L43 239s2.4 4.3 11.5 4.5C44 254.7 28.1 282.6 33 299l4.3.8c7.5-27.5 30.7-53.3 30.7-53.3 11.8-.5 19.7.7 29-9.5 4.8 5 9.6-2.8 14.3-2.8 3 6.4 15.2 1.4 8.3 7.3-25.6 22.1-31.8 59.7-31.8 59.7-5.8 9.1-6.5 13.2-11.2 20.1l1.9 2.4c20.4-7.2 20.7-26.4 27.9-43.4 6.7-15.9 17.8-33.5 29.2-46 0 0-5.2-4.1-10-4.1zm-27.4 1.5s-3.6-4-3.3-4.6c.2-.5-4.6 5.3-12 6.5-7.4 1.1-12.1-4-12.1-4s-1.1-3.6-4.3-.4c-6.3 6.5-19.8 4.5-22-4.7 0 0-4.5 3.2-7.6 1.6-12-5.8 12-19.1 24.6-7.1 12.4 9.8 25-13 38.4-1.1 11.5 10.3 3.6 19.3-1.7 13.8z"/><path fill-rule="evenodd" clip-rule="evenodd" fill="#CD6799" d="M241.1 33.5C232.9 1.3 179.6-9.2 129.2 8.7c-30 10.7-62.5 27.4-85.8 49.2-27.8 26-32.2 48.6-30.4 58 6.4 33 51.1 54.6 70.2 70.7-2.9 2-5.5 4.6-7.4 7.6-6.7-26.1-39.8-5.7-45.3 10.1-6.3 18-27.5 32-27.5 32-9 5.8 21.1 15.2 7.5 33.6 0 0-18.1 29.9-6.7 56.9 22 52 77.4 12.2 84-25.5 0 0 8.4-37.2 34-59.3 6.8-6-6.8-3.7-9.8-10.1-4.8 0-10.1 6.8-14.9 1.8-9.3 10.2-18.4 8.3-30.2 8.8 0 0-23.1 14.4-31.8 56.7-5.3-16.3 12.4-46.3 22.9-57.7-9.1-.2-13.6-6.3-13.6-6.3l-23.8 16.4c-15.1-19.4-6.5-15.7 13-33 15.1-16.7 29.8 6.8 46.8-3.2 24.6-13.1 25.7 19.8 45.5 19.8 4.8 0 6.7.9 6.7.9-11.3 12.5-24.1 25.4-30.7 41.3-7.2 16.9-7.1 34.9-23.2 46.6 21.1-1 33.2-25 37.4-42.1 4.8-19.9 30.4-44.9 30.4-44.9s4.8-4.8-.9-5.8c0 0-17.4-4.3-25.5-32.6-.7-3.5-2-6.5-3.7-8.9 4.9-.4 10.3-.4 16.4.3 31.7 3.7 38 23.5 36.8 31.8-1.2 8.3-7.8 12.9-10.1 14.2-2.2 1.4-2.9 1.9-2.7 2.9.3 1.5 1.3 1.4 3.2 1.1 2.6-.4 16.7-6.7 17.3-22 .8-19.4-17.9-41.2-50.8-40.6-13.6.2-22.1 1.5-28.3 3.8-.5-.5-.9-1-1.4-1.5-20.4-21.7-58.1-37.1-56.5-66.4.6-10.6 4.3-38.6 72.4-72.6 55.8-27.8 100.5-20.2 108.2-3.2 11 24.2-23.9 69.3-81.8 75.8-22.1 2.5-33.7-6.1-36.6-9.3-3-3.4-3.5-3.5-4.6-2.9-1.9 1-.7 4 0 5.8 1.7 4.5 8.8 12.5 20.9 16.5 10.7 3.5 36.6 5.4 67.9-6.7 35-13.9 62.4-51.7 54.4-83.2zm-181.2 278s4.8-2.1 10.5-24.1c3.5-13.4 12.8-31.7 23.3-39.6 7-5 11.1 4.8 3.6 7.1-14.1 19-17.9 39.4-24.1 61.9-4 15.5-22.9 9-13.3-5.3zm-15.8-63c5.7-3.7 4.1 2.7 1.6 4.9-19.6 17.6-20.9 42.3-21.9 50.3-1.1 8.5-9.7 10.7-10.5.2-2.6-31.1 30.8-55.4 30.8-55.4zm21.2-48.1c-5.8 4.3-6.8-7.9-11.4-4.1 0 0-10.3 6.5-6.7-3.3 3.6-9.8 12.2-8.7 12.2-8.7s8 .2 9.3 6.3c1.4 6.2-3.4 9.8-3.4 9.8zm20.6-6.7c1.4-8 17.6-10.2 21.4-3.5 0 0 1.9 3.7.8 6.1-3.4 7.6-8 3.6-8 3.6-2.5-1.9-3.3-6.2-6.9-2.6 0 .1-8.9 6-7.3-3.6z"/></symbol><symbol id="alt-logo" viewBox="0 0 246 351.7"><path fill="#F1F0F0" d="M244.6 33.5C236.4 1.3 183.1-9.2 132.7 8.7c-30 10.7-62.5 27.4-85.8 49.2-27.8 26-32.2 48.6-30.4 58 6.2 32.1 48.8 53.5 68.7 69.5 10.6-6.2 24.5-5.6 31.3 4.4 5.7-.8 12.2-.9 19.7 0 31.7 3.7 38 23.5 36.8 31.8-1.2 8.3-7.8 12.9-10.1 14.2-2.2 1.4-2.9 1.9-2.7 2.9.3 1.5 1.3 1.4 3.2 1.1 2.6-.4 16.7-6.7 17.3-22 .8-19.4-17.9-41.2-50.8-40.6-13.6.2-22.1 1.5-28.3 3.8-.5-.5-.9-1-1.4-1.5-20.4-21.7-58.1-37.1-56.5-66.4.6-10.6 4.3-38.6 72.4-72.6 55.8-27.8 100.5-20.2 108.2-3.2 11 24.2-23.9 69.3-81.8 75.8-22.1 2.5-33.7-6.1-36.6-9.3-3-3.4-3.5-3.5-4.6-2.9-1.9 1-.7 4 0 5.8 1.7 4.5 8.8 12.5 20.9 16.5 10.7 3.5 36.6 5.4 67.9-6.7 35.1-13.7 62.6-51.5 54.5-83z"/><path fill-rule="evenodd" clip-rule="evenodd" fill="#333" d="M7.1 237.4l28.7-27.1 18.6-4.3 18.1 3.7 20.3-3.7 23.1 8 16.3 14.7 6.4 6-15 21-15.8 22.4-6.6 20.6-6 11.3-11.4 11.1-5.3 2.7-4.3-1.1-36.8-18.6-30.3-66.7z"/><path fill-rule="evenodd" clip-rule="evenodd" fill="#CD6799" d="M75.8 194.2c-6.7-26.1-39.8-5.7-45.3 10.1-6.3 18-27.5 32-27.5 32-9 5.8 21.1 15.2 7.5 33.6 0 0-18.1 29.9-6.7 56.9 22 52 77.4 12.2 84-25.5 0 0 8.4-37.2 34-59.3 6.8-6-6.8-3.7-9.8-10.1-4.8 0-10.1 6.8-14.9 1.8-9.3 10.2-18.4 8.3-30.2 8.8 0 0-23.1 14.4-31.8 56.7-5.3-16.3 12.4-46.3 22.9-57.7-9.1-.2-13.6-6.3-13.6-6.3l-23.8 16.4c-15.1-19.4-6.5-15.7 13-33 15.1-16.7 29.8 6.8 46.8-3.2 24.6-13.1 25.7 19.8 45.5 19.8 4.8 0 6.7.9 6.7.9-11.3 12.5-24.1 25.4-30.7 41.3-7.2 16.9-7.1 34.9-23.2 46.6 21.1-1 33.2-25 37.4-42.1 4.8-19.9 30.4-44.9 30.4-44.9s4.8-4.8-.9-5.8c0 0-17.4-4.3-25.5-32.6-4.7-23.4-33.5-21-44.3-4.4z"/><path fill-rule="evenodd" clip-rule="evenodd" fill="#F1F0F0" d="M44.6 224.6s-4.5 3.2-7.6 1.6c-12-5.8 12-19.1 24.6-7.1 12.4 9.8 25-13 38.4-1.1 11.6 10.3 3.7 19.4-1.6 13.8 0 0-3.6-4-3.3-4.6.2-.5-4.6 5.3-12 6.5-7.4 1.1-12.1-4-12.1-4s-1.1-3.6-4.3-.4c-6.5 6.4-19.9 4.4-22.1-4.7zM53.9 196.3s-10.3 6.5-6.7-3.3c3.6-9.8 12.2-8.7 12.2-8.7s8 .2 9.3 6.3c1.4 6.2-3.4 9.8-3.4 9.8-5.7 4.3-6.7-7.9-11.4-4.1zM93.2 197.4s-8.9 5.9-7.3-3.6c1.4-8 17.6-10.3 21.4-3.5 0 0 1.9 3.7.8 6.1-3.4 7.6-8 3.6-8 3.6-2.5-1.9-3.4-6.2-6.9-2.6zM44.1 248.5s-33.4 24.3-30.7 55.4c.9 10.5 9.4 8.3 10.5-.2 1-8 2.3-32.7 21.9-50.3 2.3-2.1 3.9-8.6-1.7-4.9zM93.7 247.8c-10.5 8-19.8 26.3-23.3 39.6-5.8 22-10.5 24.1-10.5 24.1-9.6 14.3 9.3 20.7 13.3 5.3 6.3-22.5 10-42.9 24.1-61.9 7.5-2.3 3.4-12.1-3.6-7.1z"/></symbol><symbol id="icon-pin" viewBox="0 0 17.1 17.2"><path d="M0 5l.3.2c.1 0 .6.4 1.6.4h.5c2.3 2.7 4 4.7 4.4 5.2-.8 1.7-.9 3.6-.3 5.4l.2.5 4.8-4.8 5.2 5.2.5-.5-5.2-5.2 4.8-4.8-.5-.2c-1.8-.5-3.7-.4-5.4.3-.5-.4-2.5-2.1-5.2-4.4.1-.4.1-1.4-.4-2.2L5 0 0 5zm1.1-.1l3.8-3.8c.2.7.1 1.5.1 1.5l-.1.1.1.2c4.6 4 5.4 4.6 5.6 4.7h.1l.1-.1c1.4-.7 3.1-.9 4.6-.5L7 15.5c-.3-1.5-.2-3.2.5-4.6l.1-.1-.1-.1c-.2-.5-1.1-1.6-4.6-5.7l-.2-.1h-.8c-.3.1-.6 0-.8 0z"/></symbol><symbol id="icon-info" viewBox="0 0 17.1 17.1"><path d="M8.6 5.5c.6 0 1-.5 1-1 0-.6-.5-1-1-1-.6 0-1 .5-1 1s.4 1 1 1zM9.3 6.8v-.7h-2v.7H8v5.8h-.7v.7H10v-.7h-.7V6.8z"/><path d="M8.6 0C3.8 0 0 3.8 0 8.6c0 4.7 3.8 8.6 8.6 8.6s8.6-3.8 8.6-8.6C17.1 3.8 13.3 0 8.6 0zm0 16.5C4.3 16.5.7 13 .7 8.6S4.2.7 8.6.7c4.3 0 7.9 3.5 7.9 7.9s-3.6 7.9-7.9 7.9z"/></symbol><symbol id="icon-link" viewBox="0 0 17.1 17.1"><path d="M9.6 11.7c-.8 0-1.7-.3-2.3-1l.5-.5c1 1 2.6 1 3.7 0l4.3-4.3c1-1 1-2.6 0-3.7l-.8-.8c-1-1-2.6-1-3.7 0l-3 3-.6-.4 3-3C12-.3 14-.3 15.3 1l.8.8c1.3 1.3 1.3 3.3 0 4.6l-4.3 4.3c-.6.6-1.4 1-2.2 1z"/><path d="M4.1 17.1c-.9 0-1.7-.3-2.3-1l-.8-.7c-1.3-1.3-1.3-3.3 0-4.6l4.3-4.3c1.3-1.3 3.3-1.3 4.6 0l.8.8-.5.5-.8-.9c-1-1-2.6-1-3.7 0l-4.3 4.3c-1 1-1 2.6 0 3.7l.8.8c.5.5 1.1.8 1.8.8s1.3-.3 1.8-.8l2.9-2.9.5.5-2.9 2.9c-.5.6-1.4.9-2.2.9z"/></symbol><symbol id="icon-search" viewBox="0 0 25.2 25.2"><path fill="#CD6799" d="M25.2 23.9l-7.3-7.3c1.5-1.8 2.3-4 2.3-6.5C20.3 4.5 15.7 0 10.1 0S0 4.5 0 10.1s4.5 10.1 10.1 10.1c2.5 0 4.7-.9 6.5-2.3l7.3 7.3 1.3-1.3zM1.1 10.1c0-5 4.1-9.1 9.1-9.1s9.1 4.1 9.1 9.1-4.1 9.1-9.1 9.1c-5.1 0-9.1-4.1-9.1-9.1z"/></symbol><symbol id="icon-th" viewBox="0 0 64 64"><path d="M0 0h28v28H0zM0 36h28v28H0zM36 0h28v28H36zM36 36h28v28H36z"/></symbol><symbol id="icon-list" viewBox="0 0 64 64"><path d="M0 0h16v16H0zM24 0h40v16H24zM0 48h16v16H0zM24 48h40v16H24zM0 24h16v16H0zM24 24h40v16H24z"/></symbol></svg>